<svg width="636" height="185" viewBox="0 0 636 185" fill="none" xmlns="http://www.w3.org/2000/svg">
<path opacity="0.8" d="M152.808 178.935C149.052 182.449 144.57 184.206 139.36 184.206C136.21 184.206 133.958 183.508 132.605 182.111C131.838 181.348 131.454 180.004 131.454 178.077C131.454 175.114 133.605 173.198 137.906 172.33C139.259 172.055 140.884 171.917 142.783 171.917C144.681 171.917 147.275 172.288 150.567 173.029C152.324 170.975 154.414 167.958 156.836 163.979C159.28 159.978 161.208 156.897 162.622 154.738C164.035 152.579 165.641 150.377 167.438 148.133C169.235 145.868 171.113 143.825 173.071 142.004C177.049 138.278 180.987 136.415 184.884 136.415C186.621 136.415 187.872 136.881 188.64 137.813C189.407 138.723 189.791 139.813 189.791 141.083C189.791 142.332 189.235 143.793 188.125 145.465C187.035 147.138 185.762 148.62 184.309 149.911C182.875 151.203 181.451 152.303 180.038 153.214C178.645 154.103 177.544 154.547 176.736 154.547C175.929 154.547 175.232 154.187 174.646 153.468C174.061 152.748 173.768 152.06 173.768 151.403C173.768 150.726 173.849 150.26 174.011 150.006C174.192 149.731 174.374 149.594 174.556 149.594C174.737 149.594 174.848 149.71 174.889 149.943C175.535 149.731 176.565 149.075 177.978 147.974C179.412 146.852 180.714 145.688 181.885 144.481C183.057 143.274 183.642 142.523 183.642 142.227C183.642 141.909 183.461 141.75 183.097 141.75C182.754 141.75 182.279 141.877 181.673 142.131C181.068 142.385 180.26 142.914 179.25 143.719C178.241 144.502 177.15 145.518 175.979 146.767C173.152 149.731 170.002 153.933 166.529 159.374C165.721 160.602 164.58 162.391 163.106 164.74C160.098 169.504 157.947 172.764 156.655 174.521C167.014 177.379 174.414 178.808 178.857 178.808C180.916 178.808 182.36 178.533 183.188 177.982C183.491 177.792 183.693 177.697 183.794 177.697C183.895 177.697 183.945 177.781 183.945 177.951C183.945 178.12 183.854 178.374 183.673 178.713C183.491 179.051 183.036 179.771 182.31 180.872C181.603 181.973 181.078 182.629 180.735 182.841C179.745 183.455 178.059 183.762 175.676 183.762C173.314 183.762 171.052 183.582 168.891 183.222C166.751 182.862 165.025 182.513 163.712 182.174C162.4 181.814 160.451 181.243 157.866 180.459C155.302 179.676 153.616 179.168 152.808 178.935ZM141.753 176.998C139.108 176.998 137.785 177.326 137.785 177.982C137.785 178.237 138.007 178.459 138.451 178.649C138.916 178.84 139.461 178.935 140.087 178.935C142.046 178.935 143.934 178.395 145.751 177.316C144.196 177.104 142.863 176.998 141.753 176.998ZM203.148 158.707C203.754 158.707 204.37 158.993 204.996 159.565C205.642 160.136 205.965 161.015 205.965 162.2C205.965 163.365 205.572 164.889 204.784 166.773C203.996 168.636 202.916 170.541 201.543 172.489C200.17 174.415 198.656 176.236 197 177.951C195.364 179.644 193.587 181.041 191.669 182.142C189.771 183.222 188.044 183.762 186.489 183.762C184.934 183.762 183.683 183.254 182.734 182.238C181.805 181.2 181.34 179.771 181.34 177.951C181.34 176.109 181.764 174.076 182.612 171.854C183.481 169.631 184.591 167.672 185.944 165.979C187.297 164.264 188.761 162.729 190.336 161.375C193.628 158.601 196.515 157.215 198.999 157.215C200.109 157.215 200.948 157.501 201.513 158.072C201.715 158.263 201.815 158.432 201.815 158.58V158.771C202.099 158.728 202.543 158.707 203.148 158.707ZM200.089 162.931H199.877C199.171 162.931 198.817 162.391 198.817 161.311C197.343 161.819 195.798 162.708 194.183 163.979C192.567 165.249 191.124 166.752 189.852 168.488C187.267 171.96 185.954 174.892 185.914 177.284C185.914 178.469 186.328 179.062 187.156 179.062C187.984 179.062 189.215 178.49 190.851 177.347C192.487 176.204 194.102 174.574 195.697 172.457C197.313 170.34 198.514 168.509 199.301 166.964C200.109 165.397 200.513 164.339 200.513 163.788C200.513 163.216 200.372 162.931 200.089 162.931ZM208.631 176.553L208.6 177.061C208.6 177.591 208.792 178.046 209.176 178.427C209.559 178.808 209.913 178.998 210.236 178.998C212.659 178.998 214.799 178.617 216.657 177.855C218.535 177.093 219.474 176.331 219.474 175.569C219.474 175.209 219.131 174.902 218.444 174.648C217.778 174.373 216.637 174.045 215.021 173.664C213.426 173.262 212.265 172.955 211.538 172.743C210.812 172.51 210.236 172.298 209.812 172.108C209.388 171.917 208.954 171.652 208.51 171.314C207.561 170.615 207.086 169.578 207.086 168.202C207.086 166.805 207.571 165.429 208.54 164.074C209.529 162.698 210.761 161.523 212.235 160.549C213.709 159.575 215.294 158.718 216.99 157.977C220.343 156.516 223.159 155.786 225.441 155.786C227.683 155.786 229.066 156.294 229.591 157.31C229.752 157.67 229.833 158.072 229.833 158.517V158.739C229.833 159.861 229.601 160.739 229.136 161.375C228.692 162.01 227.975 162.581 226.986 163.089C226.016 163.597 225.239 163.852 224.653 163.852C224.088 163.852 223.724 163.809 223.563 163.724C223.422 163.64 223.301 163.534 223.2 163.407C223.099 163.259 222.967 163.153 222.806 163.089C222.665 163.026 222.594 162.867 222.594 162.613C222.594 162.359 222.695 162.105 222.897 161.851C223.099 161.576 223.24 161.29 223.321 160.994C221.988 161.057 220.595 161.385 219.141 161.978C217.687 162.55 216.435 163.195 215.385 163.915C214.355 164.635 213.497 165.323 212.811 165.979C212.124 166.635 211.781 167.122 211.781 167.44C211.781 167.736 212.245 167.98 213.174 168.17C217.354 169.038 220.1 169.79 221.412 170.425C222.725 171.06 223.634 171.78 224.138 172.584C224.643 173.389 224.896 174.119 224.896 174.775C224.896 176.13 224.381 177.411 223.351 178.617C222.321 179.824 221.049 180.809 219.535 181.571C216.284 183.243 213.446 184.079 211.024 184.079C208.62 184.079 206.955 183.688 206.026 182.904C205.117 182.142 204.663 181.232 204.663 180.174C204.663 179.115 204.915 178.141 205.42 177.252C205.945 176.342 206.611 175.887 207.419 175.887C208.227 175.887 208.631 176.109 208.631 176.553ZM248.976 142.004L250.217 142.322C250.399 142.322 250.561 142.417 250.702 142.608C250.843 142.798 250.914 142.978 250.914 143.148C250.914 143.317 250.702 143.772 250.278 144.513C249.854 145.254 249.349 146.101 248.763 147.053C248.198 147.985 247.895 148.493 247.855 148.578C249.43 148.45 250.541 148.387 251.187 148.387C251.853 148.387 252.308 148.44 252.55 148.546C252.792 148.63 253.065 148.895 253.367 149.339C253.691 149.763 253.983 150.091 254.246 150.324C254.508 150.536 254.64 150.864 254.64 151.308C254.64 151.753 254.377 152.134 253.852 152.452C253.347 152.748 252.802 152.928 252.216 152.991C247.532 153.478 244.947 153.732 244.462 153.753C242.827 156.378 240.535 160.475 237.587 166.043C234.659 171.589 233.104 175.061 232.923 176.458C232.841 177.093 232.801 177.612 232.801 178.014C232.801 178.84 233.215 179.253 234.043 179.253C234.871 179.253 235.79 178.924 236.8 178.268C237.809 177.591 238.738 176.86 239.586 176.077C241.848 173.96 243.059 172.902 243.221 172.902C243.746 172.902 244.008 173.854 244.008 175.76C244.008 176.797 243.554 177.728 242.645 178.554C240.606 180.396 238.889 181.782 237.496 182.714C236.103 183.645 234.709 184.111 233.316 184.111C233.013 184.111 232.731 184.079 232.468 184.016C230.853 183.698 229.661 183.084 228.894 182.174C228.147 181.243 227.773 179.993 227.773 178.427C227.793 176.86 228.238 174.966 229.106 172.743C229.995 170.499 231.105 168.117 232.438 165.598C234.619 161.491 236.8 157.638 238.98 154.039L237.829 154.198C235.487 154.473 234.124 154.611 233.74 154.611H233.468C232.882 154.611 232.317 154.495 231.772 154.261C231.226 154.008 230.954 153.701 230.954 153.341C230.954 152.981 231.095 152.632 231.378 152.293C231.68 151.954 231.862 151.689 231.923 151.499C232.064 151.033 232.589 150.515 233.498 149.943C234.427 149.371 235.123 149.075 235.588 149.054C236.052 149.011 236.496 148.98 236.92 148.958C237.365 148.937 237.849 148.916 238.375 148.895C238.92 148.874 239.334 148.853 239.616 148.831L242.342 148.705C244.038 146.037 245.199 144.322 245.825 143.56C246.472 142.798 246.845 142.385 246.946 142.322C247.047 142.237 247.249 142.195 247.552 142.195L248.976 142.004ZM294.803 138.352C295.429 136.892 295.873 136.161 296.136 136.161H296.287C296.59 136.161 297.205 136.5 298.134 137.178C299.063 137.855 299.528 138.49 299.528 139.083C299.528 139.908 296.943 146.302 291.774 158.263C286.605 170.224 283.636 176.934 282.869 178.395C282.122 179.835 281.607 180.798 281.324 181.285C281.041 181.772 280.658 182.312 280.173 182.904C279.305 184.026 278.224 184.588 276.932 184.588C276.407 184.588 275.943 184.651 275.539 184.778C275.135 184.926 274.893 185 274.812 185C274.166 185 273.843 184.841 273.843 184.524C273.843 184.46 273.923 184.196 274.085 183.73C274.267 183.285 276.579 178.152 281.021 168.329C276.276 168.138 272.106 167.99 268.512 167.884C265.059 172.436 261.929 177.199 259.122 182.174C258.779 182.873 258.456 183.359 258.153 183.635C257.85 183.931 257.436 184.079 256.911 184.079C256.386 184.079 255.821 183.793 255.215 183.222C254.609 182.672 254.306 182.026 254.306 181.285C254.306 179.168 256.911 174.637 262.121 167.694C259.678 167.694 258.123 167.757 257.456 167.884C256.81 168.011 256.396 168.075 256.215 168.075C255.669 168.075 255.397 167.598 255.397 166.646C255.397 165.672 255.932 164.825 257.002 164.105C258.093 163.365 259.546 162.994 261.364 162.994C261.505 162.994 261.757 162.984 262.121 162.962C263.373 162.899 264.655 162.846 265.967 162.803C270.37 157.384 274.974 152.356 279.779 147.72C284.585 143.084 288.745 139.834 292.259 137.971C292.824 137.675 293.268 137.537 293.591 137.558C293.934 137.558 294.338 137.823 294.803 138.352ZM292.682 142.83C285.312 148.694 278.578 155.352 272.48 162.803C276.054 162.888 279.668 163.047 283.323 163.28C286.998 155.172 290.118 148.355 292.682 142.83ZM306.646 178.014C306.646 178.945 307.251 179.411 308.463 179.411C309.109 179.411 309.917 179.073 310.886 178.395C311.876 177.718 312.764 176.977 313.552 176.172C315.652 173.992 316.843 172.902 317.126 172.902C317.651 172.902 317.913 173.696 317.913 175.283C317.913 176.871 317.439 177.961 316.49 178.554C313.602 181.285 311.371 182.947 309.796 183.539C308.907 183.857 307.928 184.005 306.858 183.984C305.788 183.963 304.727 183.476 303.678 182.523C302.627 181.571 302.102 180.417 302.102 179.062C302.102 177.686 302.445 176.13 303.132 174.394C303.819 172.658 304.515 171.176 305.222 169.948C305.949 168.699 306.838 167.26 307.887 165.63C308.938 163.979 309.493 162.952 309.553 162.55L309.493 162.486C308.826 162.55 307.171 163.926 304.525 166.614C301.9 169.303 299.73 171.642 298.013 173.632C296.297 175.622 294.247 178.279 291.865 181.602C291.198 182.513 290.653 182.968 290.229 182.968C289.805 182.968 289.239 182.83 288.533 182.555C287.806 182.259 287.362 182.047 287.2 181.92C287.039 181.793 286.958 181.603 286.958 181.348C286.958 181.094 287.029 180.787 287.17 180.427C287.311 180.046 287.453 179.74 287.594 179.506C287.715 179.253 287.927 178.871 288.23 178.363C288.533 177.855 289.129 176.786 290.017 175.156C290.926 173.505 292.309 171.049 294.167 167.789C296.024 164.529 297.135 162.56 297.499 161.883C298.266 160.486 298.892 159.469 299.376 158.834C300.285 157.628 301.82 157.024 303.98 157.024C304.465 157.024 304.707 157.342 304.707 157.977C304.707 158.972 303.829 160.845 302.072 163.597L300.8 165.598C304.293 161.533 307.241 158.961 309.644 157.882C310.815 157.352 311.866 157.088 312.795 157.088C313.744 157.088 314.49 157.352 315.035 157.882C315.601 158.411 315.884 159.004 315.884 159.66C315.884 160.295 315.672 161.068 315.248 161.978C314.824 162.867 314.39 163.671 313.945 164.391C313.521 165.09 312.956 165.979 312.249 167.059C311.542 168.138 311.159 168.731 311.098 168.837C311.038 168.922 310.876 169.176 310.614 169.599C310.371 170.001 310.189 170.298 310.068 170.488C309.947 170.679 309.745 171.017 309.463 171.504C309.18 171.97 308.948 172.362 308.766 172.679C308.604 172.997 308.392 173.389 308.13 173.854C307.887 174.32 307.685 174.722 307.524 175.061C307.383 175.4 307.231 175.77 307.07 176.172C306.787 176.913 306.646 177.527 306.646 178.014ZM353.108 135.304C353.494 135.304 353.795 135.431 354.016 135.685C354.241 135.939 354.349 136.204 354.349 136.479C354.349 136.733 354.148 137.22 353.747 137.94C353.361 138.638 352.462 140.184 351.049 142.576C349.636 144.947 348.536 146.81 347.749 148.165C343.164 155.976 339.571 162.581 336.965 167.98C334.36 173.378 333.059 176.638 333.059 177.76V178.014C333.059 178.882 333.36 179.316 333.966 179.316C334.573 179.316 335.299 179.02 336.146 178.427C337.014 177.834 337.772 177.199 338.419 176.522C339.065 175.844 339.711 175.146 340.358 174.426C341.024 173.685 341.426 173.251 341.57 173.124C341.711 172.997 341.891 172.933 342.112 172.933C342.457 172.933 342.678 173.166 342.779 173.632C342.883 174.076 342.931 174.712 342.931 175.537C342.931 176.342 342.871 176.871 342.751 177.125C342.164 178.311 340.872 179.761 338.872 181.475C336.893 183.169 335.018 184.016 333.24 184.016C330.209 184.016 328.695 182.672 328.695 179.983C328.695 178.311 329.301 176.119 330.514 173.41C328.876 175.632 327.214 177.527 325.515 179.094C322.366 181.973 319.63 183.412 317.307 183.412C316.015 183.412 315.056 182.936 314.43 181.983C313.824 181.031 313.521 179.666 313.521 177.887C313.521 176.087 314.188 173.939 315.52 171.441C316.853 168.943 318.509 166.699 320.488 164.709C322.487 162.698 324.696 161.025 327.121 159.692C329.542 158.337 331.774 157.659 333.814 157.659C334.46 157.659 335.219 158.072 336.086 158.898C336.672 157.924 337.752 155.976 339.326 153.055C344.276 144.312 347.544 138.977 349.142 137.05C349.989 135.886 351.31 135.304 353.108 135.304ZM334.239 161.883C331.333 162.56 328.627 163.979 326.122 166.138C323.618 168.297 321.74 170.562 320.488 172.933C319.236 175.283 318.61 176.808 318.61 177.506C318.61 178.205 318.751 178.554 319.034 178.554C320.245 178.554 323.244 175.717 328.029 170.044C330.413 167.249 332.481 164.529 334.239 161.883ZM363.406 165.534C362.84 165.534 362.559 165.164 362.559 164.423C362.559 163.873 362.792 163.269 363.258 162.613C363.739 161.957 364.032 161.523 364.133 161.311C364.233 161.099 364.498 160.771 364.92 160.327C365.365 159.882 365.751 159.618 366.072 159.533C366.417 159.448 367.104 159.353 368.131 159.247C371.283 158.93 374.716 158.749 378.429 158.707C382.468 152.293 385.76 147.53 388.305 144.417C384.527 145.138 379.895 145.497 374.402 145.497C366.951 145.497 363.225 143.751 363.225 140.258C363.225 139.263 363.699 138.395 364.651 137.654C365.618 136.913 366.831 136.542 368.284 136.542C369.757 136.542 370.496 136.723 370.496 137.082C370.496 137.273 370.263 137.368 369.798 137.368C369.352 137.368 368.93 137.548 368.525 137.908C368.143 138.247 367.951 138.575 367.951 138.892C367.951 139.379 368.938 139.739 370.918 139.972C372.897 140.205 375.948 140.321 380.067 140.321C384.206 140.321 388.687 139.93 393.512 139.146C395.11 137.77 396.604 136.733 397.997 136.034C399.41 135.336 400.843 134.986 402.297 134.986C403.754 134.986 404.701 135.325 405.147 136.002C405.589 136.68 405.813 137.188 405.813 137.527C405.833 137.866 405.601 138.31 405.115 138.861C404.629 139.411 403.955 139.972 403.087 140.543C401.048 141.856 398.37 142.639 395.058 142.893C391.525 147.572 387.88 152.864 384.126 158.771C385.68 158.834 387.133 158.961 388.486 159.152C389.839 159.321 390.517 159.872 390.517 160.803C390.517 161.184 389.939 161.915 388.791 162.994C388.667 163.142 388.518 163.365 388.333 163.661C388.012 164.169 387.687 164.423 387.366 164.423C387.065 164.423 386.707 164.381 386.306 164.296C384.732 164.232 383.548 164.201 382.761 164.201L380.794 164.232C373.684 175.834 370.01 181.867 369.769 182.333C369.545 182.777 369.292 183.116 369.011 183.349C368.75 183.582 368.417 183.698 368.011 183.698C367.606 183.698 367.043 183.624 366.317 183.476C365.586 183.349 365.044 183.18 364.679 182.968C364.317 182.777 364.133 182.534 364.133 182.238C364.133 181.92 364.225 181.475 364.406 180.904C364.892 179.485 368.284 174.013 374.583 164.487C370.484 164.698 367.232 164.921 364.831 165.153L363.406 165.534ZM401.875 136.86C401.55 136.966 401.156 137.135 400.695 137.368L401.875 136.86ZM410.141 158.707C410.747 158.707 411.366 158.993 411.992 159.565C412.638 160.136 412.96 161.015 412.96 162.2C412.96 163.365 412.566 164.889 411.779 166.773C410.992 168.636 409.912 170.541 408.539 172.489C407.166 174.415 405.649 176.236 403.995 177.951C402.357 179.644 400.582 181.041 398.663 182.142C396.764 183.222 395.038 183.762 393.484 183.762C391.931 183.762 390.678 183.254 389.726 182.238C388.799 181.2 388.333 179.771 388.333 177.951C388.333 176.109 388.759 174.076 389.606 171.854C390.477 169.631 391.585 167.672 392.938 165.979C394.291 164.264 395.757 162.729 397.33 161.375C400.622 158.601 403.509 157.215 405.994 157.215C407.102 157.215 407.941 157.501 408.507 158.072C408.708 158.263 408.808 158.432 408.808 158.58V158.771C409.093 158.728 409.539 158.707 410.141 158.707ZM407.082 162.931H406.873C406.167 162.931 405.813 162.391 405.813 161.311C404.336 161.819 402.794 162.708 401.176 163.979C399.563 165.249 398.117 166.752 396.845 168.488C394.263 171.96 392.95 174.892 392.91 177.284C392.91 178.469 393.324 179.062 394.151 179.062C394.978 179.062 396.21 178.49 397.844 177.347C399.482 176.204 401.096 174.574 402.69 172.457C404.308 170.34 405.508 168.509 406.295 166.964C407.102 165.397 407.508 164.339 407.508 163.788C407.508 163.216 407.367 162.931 407.082 162.931ZM437.947 172.933C438.332 172.933 438.565 173.241 438.646 173.854C438.726 174.468 438.766 175.103 438.766 175.76C438.766 176.416 438.706 176.871 438.585 177.125C437.999 178.311 436.715 179.761 434.739 181.475C432.76 183.169 430.881 184.016 429.103 184.016C428.015 184.016 427.003 183.667 426.076 182.968C425.144 182.29 424.682 181.094 424.682 179.38C424.682 177.665 425.116 175.982 425.983 174.331C420.977 180.914 417.051 184.206 414.2 184.206C413.072 184.206 412.153 183.783 411.446 182.936C410.759 182.089 410.414 181.221 410.414 180.332C410.414 179.422 410.539 178.49 410.78 177.538C411.02 176.564 411.273 175.696 411.534 174.934C411.819 174.172 412.221 173.23 412.747 172.108C413.293 170.986 413.698 170.17 413.959 169.662C414.22 169.154 414.638 168.393 415.2 167.376C415.786 166.339 416.545 164.952 417.472 163.216C418.424 161.481 419.198 160.2 419.805 159.374C420.431 158.527 421.037 158.104 421.623 158.104C422.209 158.083 422.723 158.326 423.169 158.834C423.611 159.342 423.835 159.755 423.835 160.073C423.835 160.39 423.157 161.819 421.804 164.36C417.805 171.938 415.806 176.352 415.806 177.601C415.806 177.919 415.918 178.077 416.139 178.077C417.111 178.077 419.524 175.876 423.378 171.473C427.236 167.069 429.468 164.254 430.074 163.026C430.68 161.777 431.263 160.729 431.829 159.882C432.415 159.035 432.848 158.517 433.133 158.326C434.001 157.733 435.121 157.416 436.494 157.373C436.714 157.373 436.887 157.384 437.008 157.405C437.132 157.427 437.273 157.606 437.433 157.945C437.594 158.284 437.674 158.549 437.674 158.739C437.493 159.332 436.686 160.909 435.253 163.471C433.84 166.032 433.053 167.482 432.888 167.821C430.508 172.986 429.315 176.352 429.315 177.919C429.315 178.808 429.641 179.253 430.287 179.253C431.455 179.083 432.868 178.099 434.526 176.299C435.133 175.643 435.727 174.976 436.313 174.299C436.919 173.621 437.293 173.23 437.433 173.124C437.574 172.997 437.746 172.933 437.947 172.933ZM452.637 178.014C452.637 178.945 453.243 179.411 454.455 179.411C455.102 179.411 455.909 179.073 456.88 178.395C457.868 177.718 458.755 176.977 459.546 176.172C461.646 173.992 462.834 172.902 463.119 172.902C463.645 172.902 463.906 173.696 463.906 175.283C463.906 176.871 463.432 177.961 462.481 178.554C459.594 181.285 457.362 182.947 455.788 183.539C454.901 183.857 453.921 184.005 452.85 183.984C451.782 183.963 450.722 183.476 449.67 182.523C448.618 181.571 448.096 180.417 448.096 179.062C448.096 177.686 448.437 176.13 449.124 174.394C449.81 172.658 450.509 171.176 451.216 169.948C451.942 168.699 452.829 167.26 453.881 165.63C454.929 163.979 455.487 162.952 455.547 162.55L455.487 162.486C454.821 162.55 453.163 163.926 450.517 166.614C447.891 169.303 445.723 171.642 444.005 173.632C442.291 175.622 440.239 178.279 437.859 181.602C437.192 182.513 436.646 182.968 436.221 182.968C435.799 182.968 435.233 182.83 434.526 182.555C433.8 182.259 433.354 182.047 433.194 181.92C433.033 181.793 432.949 181.603 432.949 181.348C432.949 181.094 433.021 180.787 433.161 180.427C433.302 180.046 433.447 179.74 433.587 179.506C433.707 179.253 433.92 178.871 434.221 178.363C434.526 177.855 435.121 176.786 436.008 175.156C436.919 173.505 438.3 171.049 440.159 167.789C442.018 164.529 443.126 162.56 443.491 161.883C444.258 160.486 444.884 159.469 445.37 158.834C446.277 157.628 447.811 157.024 449.971 157.024C450.457 157.024 450.702 157.342 450.702 157.977C450.702 158.972 449.822 160.845 448.064 163.597L446.791 165.598C450.284 161.533 453.235 158.961 455.636 157.882C456.808 157.352 457.86 157.088 458.787 157.088C459.735 157.088 460.482 157.352 461.028 157.882C461.594 158.411 461.875 159.004 461.875 159.66C461.875 160.295 461.666 161.068 461.24 161.978C460.815 162.867 460.381 163.671 459.939 164.391C459.514 165.09 458.948 165.979 458.241 167.059C457.535 168.138 457.153 168.731 457.089 168.837C457.029 168.922 456.868 169.176 456.607 169.599C456.362 170.001 456.182 170.298 456.061 170.488C455.941 170.679 455.736 171.017 455.455 171.504C455.174 171.97 454.941 172.362 454.761 172.679C454.596 172.997 454.383 173.389 454.122 173.854C453.881 174.32 453.677 174.722 453.516 175.061C453.376 175.4 453.223 175.77 453.062 176.172C452.781 176.913 452.637 177.527 452.637 178.014ZM499.103 135.304C499.484 135.304 499.789 135.431 500.01 135.685C500.231 135.939 500.343 136.204 500.343 136.479C500.343 136.733 500.143 137.22 499.737 137.94C499.356 138.638 498.456 140.184 497.043 142.576C495.63 144.947 494.526 146.81 493.739 148.165C489.158 155.976 485.561 162.581 482.956 167.98C480.354 173.378 479.049 176.638 479.049 177.76V178.014C479.049 178.882 479.355 179.316 479.961 179.316C480.563 179.316 481.294 179.02 482.141 178.427C483.008 177.834 483.767 177.199 484.413 176.522C485.059 175.844 485.702 175.146 486.348 174.426C487.015 173.685 487.42 173.251 487.561 173.124C487.701 172.997 487.886 172.933 488.107 172.933C488.452 172.933 488.673 173.166 488.773 173.632C488.873 174.076 488.926 174.712 488.926 175.537C488.926 176.342 488.865 176.871 488.741 177.125C488.159 178.311 486.866 179.761 484.867 181.475C482.887 183.169 481.009 184.016 479.23 184.016C476.203 184.016 474.69 182.672 474.69 179.983C474.69 178.311 475.296 176.119 476.504 173.41C474.87 175.632 473.204 177.527 471.51 179.094C468.358 181.973 465.62 183.412 463.3 183.412C462.007 183.412 461.048 182.936 460.421 181.983C459.815 181.031 459.514 179.666 459.514 177.887C459.514 176.087 460.18 173.939 461.513 171.441C462.846 168.943 464.5 166.699 466.479 164.709C468.479 162.698 470.691 161.025 473.112 159.692C475.537 158.337 477.769 157.659 479.808 157.659C480.455 157.659 481.209 158.072 482.081 158.898C482.667 157.924 483.747 155.976 485.32 153.055C490.267 144.312 493.539 138.977 495.132 137.05C495.983 135.886 497.304 135.304 499.103 135.304ZM480.23 161.883C477.323 162.56 474.617 163.979 472.116 166.138C469.611 168.297 467.732 170.562 466.479 172.933C465.227 175.283 464.601 176.808 464.601 177.506C464.601 178.205 464.745 178.554 465.026 178.554C466.239 178.554 469.238 175.717 474.023 170.044C476.404 167.249 478.475 164.529 480.23 161.883Z" fill="white"/>
<path d="M44.8642 49.269V98.7246H20.3746C16.0921 98.7246 12.5792 98.4089 9.83601 97.7776C7.15941 97.1462 5.11873 95.9538 3.71359 94.1999C2.30845 92.446 1.3381 89.956 0.802942 86.729C0.267783 83.5019 0 79.258 0 73.9968C0 68.7356 0.267783 64.4916 0.802942 61.2646C1.3381 58.0376 2.30845 55.5475 3.71359 53.7937C5.11873 52.0398 7.15941 50.8474 9.83601 50.216C12.5792 49.5847 16.0921 49.269 20.3746 49.269H44.8642ZM36.8348 58.7392H15.4566C12.9807 58.7392 11.2078 59.195 10.1371 60.1071C9.06639 61.0192 8.53123 62.5273 8.53123 64.6318V83.3618C8.53123 85.4663 9.06639 86.9744 10.1371 87.8865C11.2078 88.7985 12.9807 89.2544 15.4566 89.2544H36.8348V58.7392ZM99.3473 89.2544H106.373V98.7246H99.3473V89.2544ZM56.8918 98.7246V89.2544H91.7193C89.9127 82.3095 88.2398 76.6977 86.701 72.4184C85.2288 68.1391 83.7233 64.8422 82.1844 62.5273C80.6456 60.2124 78.8723 58.634 76.865 57.7922C74.8576 56.9504 72.4155 56.5295 69.5381 56.5295C68.4008 56.5295 67.1293 56.6347 65.7242 56.8452C64.319 56.9853 63.0476 57.2311 61.9102 57.5817L59.7021 48.322C61.4417 47.9011 63.1817 47.5854 64.9212 47.3749C66.6608 47.1645 68.2 47.0593 69.5381 47.0593C73.0843 47.0593 76.0953 47.34 78.5712 47.9011C81.1137 48.3923 83.3218 49.4794 85.1955 51.163C87.1358 52.7763 88.909 55.1965 90.5149 58.4236C92.1208 61.6506 93.76 65.9648 95.4329 71.3662C97.1725 76.6977 99.1465 83.3618 101.355 91.3589V98.7246H56.8918ZM169.219 98.7246C164.937 98.7246 161.458 98.4439 158.781 97.8828C156.105 97.3217 154.031 96.3044 152.558 94.8313C151.153 93.3581 150.183 91.3239 149.648 88.7282C149.113 86.1326 148.845 82.8357 148.845 78.8371V58.7392H156.874V83.6775C156.874 85.9221 157.476 87.4306 158.681 88.2021C159.885 88.9038 161.893 89.2544 164.703 89.2544H178.052C178.52 86.7993 178.821 84.2036 178.955 81.4677C179.156 78.6616 179.256 75.435 179.256 71.7871C179.256 68.7006 179.022 65.3684 178.554 61.7907C178.085 58.2131 177.45 54.5652 176.647 50.8474L184.576 49.4794C185.044 51.3032 185.479 53.5483 185.88 56.2138C186.282 58.8095 186.616 61.4751 186.884 64.2109C187.152 66.8765 187.286 69.2966 187.286 71.4714C187.286 78.4162 186.784 83.8879 185.78 87.8865C184.776 91.8147 182.97 94.6208 180.36 96.3044C177.818 97.9177 174.104 98.7246 169.219 98.7246ZM136.5 98.7246H126.463V89.2544H141.016C143.826 89.2544 145.834 88.9038 147.038 88.2021C148.243 87.4306 148.845 85.9221 148.845 83.6775V58.7392H156.874V78.8371C156.874 82.8357 156.606 86.1326 156.071 88.7282C155.603 91.3239 154.633 93.3581 153.161 94.8313C151.756 96.3044 149.715 97.3217 147.038 97.8828C144.362 98.4439 140.849 98.7246 136.5 98.7246ZM126.463 98.7246H102.375V89.2544H118.434V58.7392H126.463V98.7246ZM146.637 36.642C145.968 36.642 145.198 36.3264 144.328 35.695C143.458 35.0637 142.689 34.2922 142.02 33.3801C141.418 32.3981 141.117 31.5563 141.117 30.8547C141.117 30.0832 141.418 29.2763 142.02 28.4345C142.689 27.5224 143.458 26.7509 144.328 26.1196C145.198 25.4179 145.968 25.0673 146.637 25.0673C147.373 25.0673 148.142 25.4179 148.945 26.1196C149.815 26.7509 150.551 27.5224 151.153 28.4345C151.823 29.2763 152.157 30.0832 152.157 30.8547C152.157 31.5563 151.823 32.3628 151.153 33.2749C150.551 34.1869 149.815 34.9934 148.945 35.695C148.075 36.3264 147.306 36.642 146.637 36.642ZM161.09 36.642C160.42 36.642 159.651 36.3264 158.781 35.695C157.911 35.0637 157.142 34.2922 156.473 33.3801C155.871 32.3981 155.569 31.5563 155.569 30.8547C155.569 30.0832 155.871 29.2763 156.473 28.4345C157.142 27.5224 157.911 26.7509 158.781 26.1196C159.651 25.4179 160.42 25.0673 161.09 25.0673C161.826 25.0673 162.595 25.4179 163.398 26.1196C164.268 26.7509 165.004 27.5224 165.606 28.4345C166.275 29.2763 166.61 30.0832 166.61 30.8547C166.61 31.5563 166.275 32.3628 165.606 33.2749C165.004 34.1869 164.268 34.9934 163.398 35.695C162.528 36.3264 161.759 36.642 161.09 36.642ZM153.863 20.8583C153.194 20.8583 152.425 20.5427 151.555 19.9113C150.685 19.28 149.916 18.5085 149.246 17.5964C148.644 16.6144 148.343 15.7726 148.343 15.071C148.343 14.2995 148.644 13.4926 149.246 12.6508C149.916 11.7387 150.685 10.9672 151.555 10.3359C152.425 9.63424 153.194 9.28363 153.863 9.28363C154.599 9.28363 155.369 9.63424 156.172 10.3359C157.042 10.9672 157.778 11.7387 158.38 12.6508C159.049 13.4926 159.383 14.2995 159.383 15.071C159.383 15.7726 159.049 16.5791 158.38 17.4912C157.778 18.4032 157.042 19.2097 156.172 19.9113C155.302 20.5427 154.532 20.8583 153.863 20.8583ZM269.087 89.2544H281.131V98.7246H269.087V89.2544ZM218.401 133.87C217.799 132.046 217.264 129.906 216.795 127.451C216.394 124.996 216.059 122.4 215.791 119.664C215.524 116.999 215.39 114.403 215.39 111.878C215.39 106.336 215.758 101.916 216.494 98.6193C217.297 95.3224 218.568 92.9372 220.308 91.4641C222.115 89.9909 224.49 89.2544 227.434 89.2544H261.057V58.8444C258.314 58.0729 254.6 57.687 249.916 57.687C247.039 57.687 243.995 57.9324 240.783 58.4236C237.571 58.8445 234.627 59.4408 231.951 60.2124L228.839 52.4257C231.449 51.163 234.694 50.1457 238.575 49.3742C242.523 48.6027 246.537 48.2167 250.619 48.2167C255.169 48.2167 258.782 48.6726 261.459 49.5847C264.202 50.4265 266.143 51.8647 267.28 53.8989C268.484 55.8632 269.087 58.5288 269.087 61.896V98.7246H225.025C224.49 100.759 224.089 102.934 223.821 105.249C223.553 107.634 223.419 110.439 223.419 113.666C223.419 116.052 223.62 118.717 224.022 121.664C224.49 124.61 225.226 128.153 226.23 132.291L218.401 133.87ZM229.04 95.2522C227.166 93.0075 225.929 90.0612 225.326 86.4133C224.724 82.6955 224.423 78.8022 224.423 74.7334C224.423 70.7348 224.825 66.8765 225.628 63.1587C226.497 59.4409 227.568 55.8632 228.839 52.4257L236.367 54.8459C235.229 58.4235 234.292 61.8257 233.557 65.0527C232.821 68.2094 232.452 71.4365 232.452 74.7334C232.452 77.2588 232.553 79.7139 232.754 82.0991C233.021 84.4843 233.456 86.729 234.058 88.8335C234.728 90.938 235.631 92.832 236.768 94.5156L229.04 95.2522ZM273.129 98.7246V89.2544H327.527V65.7893H293.302C290.225 65.7893 287.883 65.0527 286.277 63.5796C284.671 62.0361 283.868 59.7915 283.868 56.8452C283.868 54.5302 284.269 51.9345 285.072 49.0585C285.875 46.1825 286.946 43.2362 288.284 40.2197C289.689 37.1332 291.262 34.2219 293.001 31.486C294.808 28.6799 296.715 26.2248 298.722 24.1203L305.547 27.9084C303.674 30.0129 301.934 32.2575 300.328 34.6428C298.722 36.9577 297.284 39.3429 296.012 41.798C294.808 44.2531 293.771 46.7087 292.901 49.1638C292.098 51.6189 291.496 54.0041 291.094 56.319H324.517C327.394 56.319 329.603 56.6697 331.14 57.3713C332.746 58.0729 333.886 59.2653 334.553 60.9489C335.223 62.5622 335.556 64.8772 335.556 67.8938V98.7246H273.129ZM283.466 16.3337C281.593 18.2277 279.853 20.4374 278.247 22.9628C276.708 25.4179 275.337 28.0486 274.132 30.8547C272.861 33.6608 271.824 36.4665 271.021 39.2727C270.218 42.0085 269.649 44.6042 269.315 47.0593L276.641 49.6899C277.11 46.1825 277.946 42.6748 279.151 39.1674C280.422 35.6601 281.995 32.2929 283.868 29.0659C285.809 25.769 287.95 22.7873 290.291 20.1218L283.466 16.3337Z" fill="#7776BC"/>
<path d="M230.095 12.5658L239.711 13.2809C239.669 12.7855 239.719 12.163 239.861 11.413C240.018 10.6158 240.291 9.61913 240.68 8.4242C241.224 6.7507 241.85 5.29398 242.559 4.05317C243.284 2.76438 244.189 1.78074 245.275 1.10141C246.377 0.374515 247.742 0.00874951 249.372 0.00454053C251.018 -0.0476509 253.027 0.350105 255.398 1.19737C255.717 1.31144 256.097 1.4739 256.537 1.68477C257.039 1.86365 257.427 2.00255 257.7 2.1002L252.756 17.5421L229.023 15.8644L230.095 12.5658ZM249.123 13.9228L252.224 4.38526L246.993 4.03675L243.892 13.5739L249.123 13.9228Z" fill="#7776BC"/>
<path d="M366.341 98.7246V32.9592H376.077L400.365 73.9968C401.369 75.7507 402.04 77.0134 402.373 77.7849C402.706 78.4866 402.907 79.3982 402.975 80.5208H403.577V32.9592H413.614V98.7246H403.878L379.589 57.687C378.586 55.9331 377.915 54.7058 377.582 54.0042C377.313 53.2326 377.112 52.2856 376.98 51.1631H376.378V98.7246H366.341ZM455.178 100.303C450.296 100.303 446.282 99.9873 443.134 99.356C440.059 98.7246 437.65 97.6374 435.908 96.094C434.169 94.5506 432.933 92.3762 432.194 89.5701C431.527 86.7639 431.19 83.1863 431.19 78.8372V32.9592H441.227V91.3589H455.68C459.361 91.3589 462.14 91.2187 464.01 90.938C465.954 90.5874 467.29 90.0259 468.025 89.2544C468.764 88.4126 469.129 87.2552 469.129 85.782V32.9592H479.166V78.8372C479.166 83.1863 478.801 86.7639 478.062 89.5701C477.395 92.3762 476.191 94.5506 474.449 96.094C472.71 97.6374 470.269 98.7246 467.122 99.356C464.047 99.9873 460.064 100.303 455.178 100.303ZM533.738 97.5671C531.261 98.5491 528.683 99.2507 526.009 99.6716C523.332 100.093 520.22 100.303 516.675 100.303C511.99 100.303 508.144 99.7769 505.133 98.7246C502.186 97.6021 499.878 95.7783 498.208 93.2529C496.533 90.6572 495.361 87.1499 494.695 82.7305C494.024 78.2407 493.691 72.6289 493.691 65.8945C493.691 59.02 494.024 53.3728 494.695 48.9534C495.429 44.4636 496.666 40.9563 498.408 38.4309C500.147 35.8352 502.555 34.0115 505.635 32.9592C508.778 31.907 512.793 31.3809 517.679 31.3809C519.084 31.3809 520.69 31.4861 522.496 31.6965C524.367 31.8367 526.174 32.0825 527.916 32.4331C529.723 32.7138 531.228 33.0994 532.433 33.5906L531.128 42.219C529.454 41.7981 527.615 41.4475 525.608 41.1668C523.601 40.886 521.694 40.6756 519.887 40.5354C518.08 40.3952 516.607 40.325 515.471 40.325C511.589 40.325 508.778 40.8161 507.04 41.7981C505.298 42.7102 504.43 44.8846 504.43 48.322V89.991C506.169 90.4822 508.044 90.8677 510.051 91.1484C512.123 91.4292 514.23 91.5694 516.374 91.5694C519.184 91.5694 521.958 91.324 524.705 90.8328C527.515 90.3416 530.189 89.7103 532.734 88.9387L533.738 97.5671ZM555.341 69.9983V89.991H582.942V98.7246H545.304V32.9592H582.641L581.436 41.6929H555.341V61.6855H579.128V69.9983H555.341ZM594.046 89.1492C596.724 89.8508 599.836 90.4468 603.381 90.938C606.994 91.3589 610.442 91.5694 613.718 91.5694C615.392 91.5694 617.031 91.5344 618.636 91.4641C620.311 91.3938 622.45 91.2187 625.06 90.938V71.3662L615.525 70.6296C611.045 70.279 607.363 69.7529 604.485 69.0513C601.61 68.2798 599.334 67.2275 597.66 65.8945C596.054 64.4917 594.918 62.6675 594.247 60.4229C593.645 58.1782 593.344 55.3371 593.344 51.8997C593.344 46.8489 593.946 42.8504 595.15 39.9041C596.423 36.8875 598.463 34.7131 601.273 33.3801C604.083 32.0471 607.797 31.3809 612.414 31.3809C615.894 31.3809 619.275 31.5564 622.551 31.907C625.831 32.1877 629.211 32.6785 632.688 33.3801L631.383 41.6929C628.44 41.1318 625.53 40.7458 622.651 40.5354C619.777 40.2547 616.565 40.1145 613.016 40.1145C611.077 40.1145 609.503 40.1494 608.299 40.2197C607.094 40.29 605.757 40.4302 604.284 40.6406V60.4229L615.425 61.1594C620.712 61.51 624.827 62.3518 627.77 63.6848C630.781 64.9475 632.889 66.9468 634.093 69.6826C635.366 72.4185 636 76.1363 636 80.8364C636 85.6768 635.265 89.5351 633.792 92.4111C632.322 95.2173 629.878 97.2515 626.465 98.5142C623.121 99.7066 618.572 100.303 612.815 100.303C609.27 100.303 605.858 100.093 602.578 99.6716C599.302 99.321 595.953 98.6897 592.541 97.7776L594.046 89.1492Z" fill="#7776BC"/>
</svg>
