<svg width="323" height="77" viewBox="0 0 323 77" fill="none" xmlns="http://www.w3.org/2000/svg">
<path opacity="0.8" d="M77.5049 74.3996C75.6 75.8166 73.3263 76.5249 70.6838 76.5249C69.0861 76.5249 67.9442 76.2432 67.258 75.68C66.8689 75.3727 66.6742 74.8307 66.6742 74.0539C66.6742 72.8591 67.765 72.0866 69.9465 71.7367C70.6327 71.6258 71.4572 71.5703 72.4199 71.5703C73.3827 71.5703 74.6987 71.7196 76.3681 72.0184C77.2591 71.1905 78.3192 69.9741 79.5481 68.3696C80.7874 66.7565 81.7656 65.5145 82.4824 64.6439C83.1993 63.7734 84.0136 62.8857 84.9251 61.981C85.8367 61.0677 86.7891 60.244 87.7826 59.5101C89.8001 58.0077 91.7973 57.2567 93.7741 57.2567C94.6548 57.2567 95.2897 57.4445 95.679 57.82C96.0681 58.1871 96.2628 58.6266 96.2628 59.1388C96.2628 59.6423 95.981 60.2313 95.4178 60.9055C94.8647 61.5799 94.2194 62.1772 93.4821 62.6978C92.7549 63.2186 92.0329 63.6624 91.3159 64.0294C90.6093 64.3878 90.0512 64.567 89.6415 64.567C89.2318 64.567 88.8785 64.4219 88.5814 64.1318C88.2843 63.8416 88.1359 63.5643 88.1359 63.2996C88.1359 63.0265 88.1768 62.8387 88.2588 62.7363C88.3509 62.6254 88.4431 62.5699 88.5354 62.5699C88.6274 62.5699 88.6838 62.6169 88.7044 62.7107C89.032 62.6254 89.5543 62.3608 90.2713 61.9169C90.9984 61.4646 91.659 60.9951 92.253 60.5086C92.8472 60.022 93.1441 59.7191 93.1441 59.5997C93.1441 59.4715 93.052 59.4076 92.8675 59.4076C92.6934 59.4076 92.4527 59.4588 92.1455 59.5611C91.8382 59.6636 91.4287 59.877 90.9166 60.2014C90.4045 60.5172 89.8514 60.9269 89.2574 61.4304C87.8235 62.6254 86.2258 64.3196 84.4643 66.5131C84.0546 67.0081 83.4759 67.7293 82.7281 68.6768C81.2022 70.5972 80.1115 71.9117 79.4561 72.62C84.71 73.7724 88.4637 74.3485 90.7168 74.3485C91.7614 74.3485 92.4937 74.2376 92.9138 74.0156C93.0673 73.9387 93.1697 73.9004 93.221 73.9004C93.2721 73.9004 93.2978 73.9345 93.2978 74.0029C93.2978 74.0711 93.2516 74.1734 93.1595 74.31C93.0673 74.4466 92.8368 74.7368 92.4682 75.1807C92.1096 75.6245 91.8435 75.889 91.6694 75.9744C91.1675 76.222 90.3122 76.3457 89.1037 76.3457C87.9054 76.3457 86.7583 76.2731 85.6624 76.128C84.5769 75.9829 83.7013 75.8422 83.0354 75.7056C82.3698 75.5605 81.3814 75.3301 80.0704 75.0143C78.7698 74.6985 77.9146 74.4936 77.5049 74.3996ZM71.8976 73.6187C70.5559 73.6187 69.885 73.751 69.885 74.0156C69.885 74.1181 69.9978 74.2077 70.223 74.2844C70.4586 74.3613 70.7351 74.3996 71.0526 74.3996C72.0461 74.3996 73.0037 74.1821 73.9253 73.7468C73.1367 73.6614 72.4609 73.6187 71.8976 73.6187ZM103.038 66.2443C103.345 66.2443 103.657 66.3595 103.975 66.59C104.303 66.8204 104.466 67.1746 104.466 67.6526C104.466 68.122 104.267 68.7365 103.867 69.4962C103.468 70.2473 102.92 71.0155 102.223 71.8007C101.527 72.5774 100.759 73.3115 99.9191 74.0029C99.0896 74.6856 98.1881 75.249 97.2152 75.6927C96.2524 76.128 95.3768 76.3457 94.5882 76.3457C93.7995 76.3457 93.1646 76.1409 92.6833 75.7312C92.2121 75.3129 91.9765 74.7368 91.9765 74.0029C91.9765 73.2603 92.1917 72.4408 92.6218 71.5446C93.0622 70.6485 93.6254 69.8589 94.3117 69.1762C94.9979 68.4848 95.7405 67.866 96.5393 67.3197C98.2087 66.2016 99.6732 65.6426 100.933 65.6426C101.496 65.6426 101.921 65.7578 102.208 65.9882C102.311 66.0651 102.362 66.1333 102.362 66.1931V66.2699C102.505 66.2528 102.73 66.2443 103.038 66.2443ZM101.486 67.9471H101.379C101.02 67.9471 100.841 67.7293 100.841 67.2941C100.093 67.4989 99.3097 67.8575 98.4903 68.3696C97.6709 68.8816 96.9387 69.4877 96.2936 70.1876C94.9826 71.5874 94.3168 72.7695 94.2964 73.7339C94.2964 74.2119 94.5063 74.4509 94.9262 74.4509C95.3461 74.4509 95.9708 74.2204 96.8004 73.7595C97.63 73.2986 98.4494 72.6414 99.2584 71.788C100.078 70.9344 100.687 70.1961 101.087 69.5731C101.496 68.9415 101.701 68.5147 101.701 68.2927C101.701 68.0623 101.629 67.9471 101.486 67.9471ZM105.818 73.4395L105.803 73.6443C105.803 73.8578 105.9 74.0412 106.095 74.1948C106.289 74.3485 106.469 74.4252 106.633 74.4252C107.862 74.4252 108.947 74.2717 109.89 73.9643C110.842 73.6572 111.318 73.3499 111.318 73.0426C111.318 72.8975 111.144 72.7737 110.796 72.6713C110.458 72.5603 109.879 72.4281 109.06 72.2743C108.251 72.1123 107.662 71.9886 107.293 71.9032C106.925 71.8092 106.633 71.7238 106.417 71.6471C106.202 71.5703 105.982 71.4635 105.757 71.3271C105.276 71.0454 105.035 70.6271 105.035 70.0723C105.035 69.5089 105.281 68.9542 105.772 68.408C106.274 67.8532 106.899 67.3794 107.647 66.9869C108.394 66.5942 109.198 66.2486 110.058 65.9499C111.759 65.3609 113.187 65.0665 114.345 65.0665C115.482 65.0665 116.183 65.2713 116.449 65.6809C116.531 65.826 116.572 65.9883 116.572 66.1675V66.257C116.572 66.7095 116.454 67.0636 116.219 67.3197C115.993 67.5758 115.63 67.8062 115.128 68.011C114.636 68.2159 114.242 68.3184 113.945 68.3184C113.658 68.3184 113.474 68.3012 113.392 68.2671C113.32 68.233 113.259 68.1902 113.208 68.1392C113.157 68.0794 113.09 68.0367 113.008 68.011C112.936 67.9854 112.901 67.9214 112.901 67.8191C112.901 67.7166 112.952 67.6141 113.054 67.5118C113.157 67.4008 113.228 67.2856 113.269 67.1661C112.593 67.1917 111.887 67.3239 111.149 67.563C110.412 67.7935 109.777 68.0538 109.244 68.344C108.722 68.6342 108.287 68.9116 107.938 69.1762C107.59 69.4407 107.416 69.6371 107.416 69.765C107.416 69.8845 107.652 69.9827 108.123 70.0594C110.243 70.4095 111.636 70.7124 112.301 70.9685C112.967 71.2246 113.428 71.5148 113.684 71.8391C113.94 72.1635 114.068 72.458 114.068 72.7225C114.068 73.2688 113.807 73.7851 113.285 74.2717C112.762 74.7582 112.117 75.1551 111.349 75.4623C109.7 76.1366 108.261 76.4737 107.032 76.4737C105.813 76.4737 104.968 76.3158 104.497 76C104.036 75.6927 103.806 75.3258 103.806 74.899C103.806 74.4722 103.934 74.0796 104.19 73.7212C104.456 73.3541 104.794 73.1707 105.204 73.1707C105.614 73.1707 105.818 73.2603 105.818 73.4395ZM126.281 59.5101L126.911 59.638C127.003 59.638 127.085 59.6764 127.157 59.7532C127.229 59.8301 127.265 59.9026 127.265 59.971C127.265 60.0392 127.157 60.2226 126.942 60.5215C126.727 60.8201 126.471 61.1616 126.174 61.5456C125.887 61.9211 125.734 62.1261 125.713 62.1602C126.512 62.109 127.075 62.0834 127.403 62.0834C127.741 62.0834 127.971 62.1047 128.094 62.1473C128.217 62.1814 128.355 62.2882 128.509 62.4674C128.673 62.6381 128.821 62.7705 128.955 62.8643C129.088 62.9497 129.154 63.082 129.154 63.2612C129.154 63.4404 129.021 63.5942 128.755 63.7221C128.499 63.8416 128.222 63.9142 127.925 63.9398C125.549 64.136 124.238 64.2385 123.992 64.247C123.163 65.3054 122 66.957 120.505 69.2018C119.02 71.4379 118.231 72.8377 118.139 73.4011C118.098 73.6572 118.078 73.8663 118.078 74.0283C118.078 74.3613 118.288 74.5277 118.708 74.5277C119.127 74.5277 119.594 74.3954 120.106 74.1308C120.618 73.8578 121.089 73.5632 121.519 73.2474C122.666 72.394 123.281 71.9672 123.363 71.9672C123.629 71.9672 123.762 72.3512 123.762 73.1194C123.762 73.5376 123.532 73.9131 123.071 74.246C122.036 74.9886 121.166 75.5476 120.459 75.9232C119.752 76.2987 119.046 76.4865 118.339 76.4865C118.185 76.4865 118.042 76.4737 117.909 76.4482C117.089 76.3201 116.485 76.0727 116.096 75.7056C115.717 75.3301 115.528 74.8264 115.528 74.1948C115.538 73.5632 115.763 72.7994 116.204 71.9032C116.654 70.9984 117.217 70.0382 117.893 69.0224C119 67.3667 120.106 65.8133 121.212 64.3622L120.628 64.4264C119.44 64.5372 118.749 64.5927 118.554 64.5927H118.416C118.119 64.5927 117.832 64.5458 117.555 64.4518C117.279 64.3495 117.141 64.2258 117.141 64.0807C117.141 63.9354 117.212 63.7947 117.356 63.6581C117.509 63.5215 117.601 63.4148 117.632 63.3381C117.704 63.1502 117.97 62.9412 118.431 62.7107C118.902 62.4803 119.256 62.3608 119.491 62.3521C119.727 62.3352 119.952 62.3223 120.167 62.3138C120.392 62.3053 120.638 62.2967 120.905 62.2882C121.181 62.2797 121.391 62.2712 121.534 62.2626L122.917 62.2115C123.777 61.1359 124.366 60.4446 124.684 60.1373C125.011 59.8301 125.201 59.6636 125.252 59.638C125.303 59.6039 125.406 59.5868 125.559 59.5868L126.281 59.5101ZM149.525 58.0376C149.843 57.4488 150.068 57.1543 150.201 57.1543H150.278C150.431 57.1543 150.744 57.2908 151.215 57.564C151.686 57.837 151.922 58.0931 151.922 58.3322C151.922 58.665 150.611 61.2427 147.989 66.0651C145.367 70.8874 143.861 73.5931 143.472 74.1821C143.093 74.7624 142.832 75.1507 142.689 75.347C142.545 75.5434 142.351 75.7611 142.105 76C141.665 76.4524 141.117 76.6787 140.461 76.6787C140.195 76.6787 139.959 76.7041 139.754 76.7553C139.55 76.8151 139.427 76.845 139.386 76.845C139.058 76.845 138.894 76.781 138.894 76.653C138.894 76.6274 138.935 76.5207 139.017 76.333C139.109 76.1536 140.282 74.0838 142.535 70.1236C140.128 70.0467 138.013 69.987 136.19 69.9442C134.439 71.7793 132.852 73.6998 131.428 75.7056C131.254 75.9873 131.09 76.1835 130.936 76.2945C130.783 76.4139 130.573 76.4737 130.306 76.4737C130.04 76.4737 129.753 76.3584 129.446 76.128C129.139 75.9062 128.985 75.6459 128.985 75.347C128.985 74.4936 130.306 72.667 132.949 69.8675C131.71 69.8675 130.921 69.8931 130.583 69.9442C130.255 69.9955 130.045 70.0211 129.953 70.0211C129.677 70.0211 129.538 69.829 129.538 69.445C129.538 69.0523 129.81 68.711 130.353 68.4207C130.906 68.122 131.643 67.9727 132.565 67.9727C132.636 67.9727 132.764 67.9684 132.949 67.9598C133.584 67.9343 134.234 67.9129 134.9 67.8958C137.133 65.7108 139.468 63.6838 141.905 61.8146C144.343 59.9453 146.453 58.6351 148.235 57.884C148.521 57.7646 148.747 57.7091 148.911 57.7176C149.085 57.7176 149.29 57.8243 149.525 58.0376ZM148.45 59.8428C144.712 62.2071 141.296 64.8915 138.203 67.8958C140.016 67.9299 141.849 67.9941 143.703 68.0879C145.567 64.8189 147.149 62.0706 148.45 59.8428ZM155.532 74.0283C155.532 74.4039 155.839 74.5917 156.454 74.5917C156.781 74.5917 157.191 74.4551 157.683 74.1821C158.185 73.9089 158.635 73.6102 159.035 73.2859C160.1 72.4067 160.704 71.9672 160.847 71.9672C161.114 71.9672 161.247 72.2872 161.247 72.9273C161.247 73.5674 161.006 74.0071 160.525 74.246C159.06 75.347 157.929 76.0172 157.13 76.2561C156.679 76.3841 156.182 76.4438 155.639 76.4353C155.097 76.4268 154.559 76.2305 154.026 75.8465C153.494 75.4623 153.227 74.9971 153.227 74.4509C153.227 73.8961 153.402 73.2688 153.75 72.5689C154.098 71.8689 154.451 71.2716 154.81 70.7764C155.179 70.2729 155.629 69.6926 156.162 69.0353C156.694 68.3696 156.976 67.9555 157.007 67.7935L156.976 67.7679C156.638 67.7935 155.798 68.3482 154.457 69.4322C153.125 70.5161 152.024 71.4593 151.154 72.2616C150.283 73.0639 149.243 74.1351 148.035 75.4752C147.697 75.8422 147.42 76.0257 147.205 76.0257C146.99 76.0257 146.703 75.9702 146.345 75.8592C145.976 75.7397 145.751 75.6544 145.669 75.6031C145.587 75.5519 145.546 75.4752 145.546 75.3727C145.546 75.2703 145.582 75.1465 145.654 75.0014C145.725 74.8478 145.797 74.7241 145.869 74.6301C145.93 74.5277 146.038 74.374 146.192 74.1692C146.345 73.9643 146.647 73.5333 147.098 72.8761C147.559 72.2104 148.26 71.2203 149.203 69.9059C150.145 68.5914 150.708 67.7977 150.892 67.5245C151.282 66.9613 151.599 66.5515 151.845 66.2956C152.306 65.8091 153.084 65.5657 154.18 65.5657C154.426 65.5657 154.549 65.6938 154.549 65.9499C154.549 66.3509 154.103 67.1064 153.212 68.2159L152.567 69.0224C154.339 67.3837 155.834 66.3466 157.053 65.9114C157.647 65.6981 158.179 65.5913 158.651 65.5913C159.132 65.5913 159.511 65.6981 159.787 65.9114C160.074 66.1249 160.218 66.3638 160.218 66.6283C160.218 66.8844 160.11 67.196 159.895 67.563C159.68 67.9214 159.46 68.2457 159.234 68.5359C159.019 68.8176 158.733 69.1762 158.374 69.6114C158.016 70.0467 157.821 70.2857 157.79 70.3284C157.76 70.3625 157.678 70.465 157.545 70.6356C157.422 70.7978 157.329 70.9173 157.268 70.9941C157.207 71.071 157.104 71.2074 156.961 71.4038C156.817 71.5916 156.699 71.7495 156.607 71.8776C156.525 72.0055 156.418 72.1635 156.285 72.3512C156.162 72.5391 156.059 72.7011 155.977 72.8377C155.906 72.9743 155.829 73.1237 155.747 73.2859C155.604 73.5846 155.532 73.8321 155.532 74.0283ZM179.098 56.8087C179.294 56.8087 179.446 56.8597 179.558 56.9622C179.672 57.0647 179.727 57.1713 179.727 57.2823C179.727 57.3848 179.625 57.5811 179.422 57.8713C179.226 58.1528 178.77 58.776 178.053 59.7405C177.337 60.6964 176.779 61.4475 176.38 61.9937C174.054 65.1432 172.232 67.8062 170.91 69.9827C169.589 72.1591 168.929 73.4736 168.929 73.926V74.0283C168.929 74.3784 169.082 74.5534 169.389 74.5534C169.697 74.5534 170.065 74.4339 170.495 74.1948C170.935 73.9559 171.319 73.6998 171.647 73.4267C171.975 73.1535 172.303 72.8718 172.631 72.5817C172.969 72.283 173.173 72.108 173.246 72.0568C173.317 72.0055 173.409 71.9799 173.521 71.9799C173.696 71.9799 173.808 72.0737 173.859 72.2616C173.912 72.4408 173.936 72.6969 173.936 73.0298C173.936 73.3541 173.906 73.5674 173.844 73.6699C173.547 74.148 172.891 74.7326 171.877 75.4239C170.874 76.1068 169.923 76.4482 169.021 76.4482C167.483 76.4482 166.715 75.9062 166.715 74.8222C166.715 74.148 167.023 73.2645 167.638 72.172C166.807 73.0682 165.964 73.8322 165.103 74.4638C163.505 75.6245 162.117 76.2048 160.94 76.2048C160.284 76.2048 159.798 76.0128 159.48 75.6287C159.173 75.2447 159.019 74.6942 159.019 73.9772C159.019 73.2516 159.357 72.3853 160.033 71.3782C160.709 70.371 161.549 69.4664 162.553 68.664C163.567 67.8532 164.687 67.1788 165.917 66.6412C167.145 66.095 168.277 65.8218 169.312 65.8218C169.64 65.8218 170.024 65.9883 170.464 66.321C170.762 65.9285 171.309 65.1432 172.108 63.9655C174.618 60.4403 176.276 58.2894 177.086 57.5127C177.516 57.0433 178.186 56.8087 179.098 56.8087ZM169.528 67.5245C168.053 67.7977 166.681 68.3696 165.41 69.2402C164.14 70.1107 163.188 71.024 162.553 71.9799C161.918 72.9273 161.6 73.542 161.6 73.8235C161.6 74.1052 161.672 74.246 161.815 74.246C162.43 74.246 163.951 73.1023 166.377 70.8149C167.587 69.6883 168.636 68.5914 169.528 67.5245ZM184.321 68.9968C184.034 68.9968 183.891 68.8475 183.891 68.5488C183.891 68.3268 184.01 68.0837 184.246 67.8191C184.49 67.5544 184.639 67.3794 184.69 67.2941C184.741 67.2087 184.875 67.0765 185.089 66.8971C185.315 66.7179 185.51 66.6114 185.673 66.5771C185.848 66.543 186.196 66.5046 186.718 66.4619C188.316 66.3339 190.057 66.2613 191.941 66.2443C193.989 63.6581 195.659 61.7377 196.95 60.4829C195.034 60.7733 192.684 60.9184 189.898 60.9184C186.119 60.9184 184.229 60.2141 184.229 58.8058C184.229 58.4047 184.47 58.0547 184.952 57.7561C185.443 57.4572 186.058 57.3079 186.795 57.3079C187.542 57.3079 187.917 57.3805 187.917 57.5256C187.917 57.6023 187.799 57.6408 187.563 57.6408C187.337 57.6408 187.123 57.7133 186.917 57.8584C186.724 57.995 186.626 58.1274 186.626 58.2553C186.626 58.4517 187.127 58.5968 188.131 58.6906C189.135 58.7844 190.682 58.8314 192.772 58.8314C194.871 58.8314 197.143 58.6736 199.591 58.3578C200.402 57.8029 201.159 57.3848 201.866 57.1031C202.582 56.8214 203.309 56.6805 204.046 56.6805C204.786 56.6805 205.266 56.8171 205.492 57.0902C205.716 57.3634 205.83 57.5682 205.83 57.7048C205.84 57.8414 205.722 58.0206 205.476 58.2426C205.229 58.4644 204.887 58.6906 204.448 58.921C203.413 59.4503 202.055 59.7661 200.375 59.8685C198.583 61.7548 196.734 63.8886 194.83 66.2699C195.618 66.2956 196.355 66.3466 197.042 66.4235C197.728 66.4917 198.072 66.7137 198.072 67.0892C198.072 67.2428 197.779 67.5374 197.196 67.9727C197.133 68.0324 197.058 68.122 196.964 68.2415C196.801 68.4463 196.636 68.5488 196.474 68.5488C196.321 68.5488 196.14 68.5317 195.936 68.4976C195.138 68.4719 194.537 68.4592 194.138 68.4592L193.14 68.4719C189.534 73.1493 187.671 75.5817 187.549 75.7696C187.435 75.9488 187.306 76.0854 187.164 76.1792C187.031 76.2731 186.862 76.3201 186.657 76.3201C186.451 76.3201 186.166 76.2902 185.797 76.2305C185.427 76.1792 185.152 76.111 184.967 76.0257C184.783 75.9488 184.69 75.8507 184.69 75.7312C184.69 75.6031 184.736 75.4239 184.828 75.1935C185.075 74.6216 186.795 72.4152 189.99 68.5744C187.911 68.6598 186.262 68.7494 185.044 68.8432L184.321 68.9968ZM203.833 57.4359C203.668 57.4786 203.468 57.5468 203.234 57.6408L203.833 57.4359ZM208.025 66.2443C208.333 66.2443 208.646 66.3595 208.964 66.59C209.292 66.8204 209.455 67.1746 209.455 67.6526C209.455 68.122 209.255 68.7365 208.856 69.4962C208.457 70.2473 207.909 71.0155 207.213 71.8007C206.516 72.5774 205.747 73.3115 204.908 74.0029C204.077 74.6856 203.177 75.249 202.204 75.6927C201.24 76.128 200.365 76.3457 199.577 76.3457C198.789 76.3457 198.153 76.1409 197.671 75.7312C197.2 75.3129 196.964 74.7368 196.964 74.0029C196.964 73.2603 197.18 72.4408 197.61 71.5446C198.052 70.6485 198.614 69.8589 199.3 69.1762C199.986 68.4848 200.729 67.866 201.528 67.3197C203.197 66.2016 204.661 65.6426 205.922 65.6426C206.484 65.6426 206.909 65.7578 207.197 65.9882C207.298 66.0651 207.349 66.1333 207.349 66.1931V66.2699C207.494 66.2528 207.72 66.2443 208.025 66.2443ZM206.474 67.9471H206.368C206.009 67.9471 205.83 67.7293 205.83 67.2941C205.081 67.4989 204.299 67.8575 203.478 68.3696C202.66 68.8816 201.927 69.4877 201.281 70.1876C199.972 71.5874 199.306 72.7695 199.286 73.7339C199.286 74.2119 199.495 74.4509 199.915 74.4509C200.334 74.4509 200.959 74.2204 201.788 73.7595C202.619 73.2986 203.438 72.6414 204.246 71.788C205.067 70.9344 205.675 70.1961 206.075 69.5731C206.484 68.9415 206.689 68.5147 206.689 68.2927C206.689 68.0623 206.618 67.9471 206.474 67.9471ZM222.128 71.9799C222.324 71.9799 222.442 72.1038 222.483 72.3512C222.524 72.5988 222.544 72.8549 222.544 73.1194C222.544 73.384 222.513 73.5674 222.452 73.6699C222.155 74.148 221.503 74.7326 220.502 75.4239C219.498 76.1068 218.545 76.4482 217.643 76.4482C217.091 76.4482 216.578 76.3073 216.107 76.0257C215.635 75.7524 215.401 75.2703 215.401 74.579C215.401 73.8876 215.621 73.209 216.06 72.5433C213.521 75.1977 211.53 76.5249 210.084 76.5249C209.512 76.5249 209.045 76.3542 208.687 76.0128C208.339 75.6715 208.164 75.3214 208.164 74.963C208.164 74.596 208.227 74.2204 208.349 73.8364C208.471 73.4437 208.6 73.0938 208.732 72.7865C208.876 72.4793 209.08 72.0994 209.347 71.6471C209.624 71.1947 209.829 70.866 209.962 70.6612C210.094 70.4564 210.306 70.1492 210.591 69.7394C210.888 69.3213 211.273 68.7621 211.744 68.0623C212.226 67.3625 212.619 66.8461 212.927 66.5131C213.244 66.1717 213.552 66.001 213.849 66.001C214.146 65.9925 214.407 66.0906 214.633 66.2956C214.857 66.5004 214.971 66.6667 214.971 66.7948C214.971 66.9228 214.627 67.4989 213.941 68.5232C211.913 71.5787 210.898 73.3584 210.898 73.862C210.898 73.99 210.955 74.0539 211.067 74.0539C211.56 74.0539 212.784 73.1663 214.739 71.3911C216.696 69.6157 217.828 68.4806 218.135 67.9854C218.443 67.4819 218.738 67.0594 219.025 66.7179C219.323 66.3765 219.542 66.1674 219.687 66.0906C220.127 65.8516 220.695 65.7237 221.391 65.7065C221.503 65.7065 221.591 65.7108 221.652 65.7195C221.715 65.7279 221.786 65.8004 221.868 65.937C221.949 66.0736 221.99 66.1803 221.99 66.257C221.898 66.4961 221.489 67.132 220.762 68.1648C220.045 69.1974 219.646 69.7822 219.563 69.9188C218.355 72.0013 217.751 73.3584 217.751 73.99C217.751 74.3485 217.915 74.5277 218.243 74.5277C218.836 74.4594 219.553 74.0626 220.394 73.337C220.701 73.0724 221.002 72.8036 221.3 72.5304C221.607 72.2574 221.797 72.0994 221.868 72.0568C221.939 72.0055 222.027 71.9799 222.128 71.9799ZM229.579 74.0283C229.579 74.4039 229.887 74.5917 230.502 74.5917C230.829 74.5917 231.239 74.4551 231.732 74.1821C232.232 73.9089 232.682 73.6102 233.084 73.2859C234.149 72.4067 234.751 71.9672 234.896 71.9672C235.163 71.9672 235.295 72.2872 235.295 72.9273C235.295 73.5674 235.055 74.0071 234.572 74.246C233.108 75.347 231.976 76.0172 231.178 76.2561C230.728 76.3841 230.231 76.4438 229.687 76.4353C229.145 76.4268 228.608 76.2305 228.074 75.8465C227.541 75.4623 227.276 74.9971 227.276 74.4509C227.276 73.8961 227.449 73.2688 227.797 72.5689C228.146 71.8689 228.5 71.2716 228.858 70.7764C229.227 70.2729 229.677 69.6926 230.21 69.0353C230.742 68.3696 231.025 67.9555 231.056 67.7935L231.025 67.7679C230.687 67.7935 229.846 68.3482 228.504 69.4322C227.172 70.5161 226.073 71.4593 225.201 72.2616C224.332 73.0639 223.291 74.1351 222.084 75.4752C221.746 75.8422 221.469 76.0257 221.253 76.0257C221.039 76.0257 220.752 75.9702 220.394 75.8592C220.025 75.7397 219.799 75.6544 219.718 75.6031C219.636 75.5519 219.593 75.4752 219.593 75.3727C219.593 75.2703 219.63 75.1465 219.701 75.0014C219.773 74.8478 219.846 74.7241 219.917 74.6301C219.978 74.5277 220.086 74.374 220.239 74.1692C220.394 73.9643 220.695 73.5333 221.145 72.8761C221.607 72.2104 222.308 71.2203 223.25 69.9059C224.193 68.5914 224.755 67.7977 224.941 67.5245C225.329 66.9613 225.647 66.5515 225.894 66.2956C226.354 65.8091 227.132 65.5657 228.227 65.5657C228.473 65.5657 228.598 65.6938 228.598 65.9499C228.598 66.3509 228.152 67.1064 227.26 68.2159L226.614 69.0224C228.386 67.3837 229.883 66.3466 231.1 65.9114C231.695 65.6981 232.228 65.5913 232.699 65.5913C233.179 65.5913 233.558 65.6981 233.835 65.9114C234.122 66.1249 234.265 66.3638 234.265 66.6283C234.265 66.8844 234.159 67.196 233.943 67.563C233.727 67.9214 233.507 68.2457 233.283 68.5359C233.067 68.8176 232.78 69.1762 232.422 69.6114C232.063 70.0467 231.87 70.2857 231.837 70.3284C231.807 70.3625 231.725 70.465 231.593 70.6356C231.469 70.7978 231.377 70.9173 231.316 70.9941C231.255 71.071 231.151 71.2074 231.009 71.4038C230.866 71.5916 230.748 71.7495 230.656 71.8776C230.573 72.0055 230.465 72.1635 230.333 72.3512C230.21 72.5391 230.107 72.7011 230.025 72.8377C229.954 72.9743 229.876 73.1237 229.795 73.2859C229.653 73.5846 229.579 73.8321 229.579 74.0283ZM253.147 56.8087C253.34 56.8087 253.495 56.8597 253.607 56.9622C253.719 57.0647 253.776 57.1713 253.776 57.2823C253.776 57.3848 253.674 57.5811 253.469 57.8713C253.275 58.1528 252.819 58.776 252.102 59.7405C251.386 60.6964 250.826 61.4475 250.427 61.9937C248.103 65.1432 246.279 67.8062 244.957 69.9827C243.638 72.1591 242.976 73.4736 242.976 73.926V74.0283C242.976 74.3784 243.131 74.5534 243.438 74.5534C243.743 74.5534 244.114 74.4339 244.544 74.1948C244.984 73.9559 245.368 73.6998 245.696 73.4267C246.024 73.1535 246.35 72.8718 246.678 72.5817C247.016 72.283 247.221 72.108 247.293 72.0568C247.364 72.0055 247.458 71.9799 247.57 71.9799C247.745 71.9799 247.857 72.0737 247.908 72.2616C247.959 72.4408 247.985 72.6969 247.985 73.0298C247.985 73.3541 247.955 73.5674 247.891 73.6699C247.596 74.148 246.94 74.7326 245.926 75.4239C244.922 76.1068 243.97 76.4482 243.067 76.4482C241.532 76.4482 240.764 75.9062 240.764 74.8222C240.764 74.148 241.072 73.2645 241.685 72.172C240.856 73.0682 240.011 73.8322 239.152 74.4638C237.553 75.6245 236.165 76.2048 234.988 76.2048C234.332 76.2048 233.845 76.0128 233.528 75.6287C233.22 75.2447 233.067 74.6942 233.067 73.9772C233.067 73.2516 233.405 72.3853 234.081 71.3782C234.757 70.371 235.596 69.4664 236.6 68.664C237.614 67.8532 238.736 67.1788 239.964 66.6412C241.194 66.095 242.326 65.8218 243.361 65.8218C243.689 65.8218 244.071 65.9883 244.513 66.321C244.81 65.9285 245.358 65.1432 246.156 63.9655C248.665 60.4403 250.325 58.2894 251.133 57.5127C251.565 57.0433 252.235 56.8087 253.147 56.8087ZM243.574 67.5245C242.1 67.7977 240.728 68.3696 239.459 69.2402C238.189 70.1107 237.236 71.024 236.6 71.9799C235.965 72.9273 235.647 73.542 235.647 73.8235C235.647 74.1052 235.721 74.246 235.863 74.246C236.478 74.246 237.999 73.1023 240.426 70.8149C241.634 69.6883 242.685 68.5914 243.574 67.5245Z" fill="white"/>
<path d="M22.7553 22.1212V42.0606H10.3341C8.16198 42.0606 6.38024 41.9333 4.98886 41.6788C3.63128 41.4242 2.59624 40.9435 1.88355 40.2364C1.17085 39.5292 0.67869 38.5253 0.407255 37.2242C0.135821 35.9232 0 34.2121 0 32.0909C0 29.9697 0.135821 28.2586 0.407255 26.9576C0.67869 25.6565 1.17085 24.6526 1.88355 23.9455C2.59624 23.2383 3.63128 22.7576 4.98886 22.503C6.38024 22.2485 8.16198 22.1212 10.3341 22.1212H22.7553ZM18.6828 25.9394H7.83964C6.58387 25.9394 5.68465 26.1232 5.14158 26.4909C4.59851 26.8586 4.32707 27.4667 4.32707 28.3152V35.8667C4.32707 36.7151 4.59851 37.3232 5.14158 37.6909C5.68465 38.0586 6.58387 38.2424 7.83964 38.2424H18.6828V25.9394ZM50.3893 38.2424H53.9528V42.0606H50.3893V38.2424ZM28.8558 42.0606V38.2424H46.5204C45.6041 35.4424 44.7556 33.1799 43.9751 31.4545C43.2284 29.7292 42.4648 28.4 41.6843 27.4667C40.9038 26.5333 40.0043 25.897 38.9862 25.5576C37.9681 25.2182 36.7294 25.0485 35.27 25.0485C34.6931 25.0485 34.0483 25.0909 33.3356 25.1758C32.6229 25.2323 31.978 25.3314 31.4011 25.4727L30.2812 21.7394C31.1635 21.5697 32.046 21.4424 32.9283 21.3576C33.8106 21.2727 34.5913 21.2303 35.27 21.2303C37.0687 21.2303 38.5959 21.3435 39.8516 21.5697C41.1412 21.7677 42.2611 22.2061 43.2115 22.8848C44.1956 23.5353 45.095 24.5111 45.9095 25.8121C46.724 27.1132 47.5554 28.8526 48.404 31.0303C49.2863 33.1799 50.2875 35.8667 51.4075 39.0909V42.0606H28.8558ZM85.8288 42.0606C83.6567 42.0606 81.892 41.9474 80.5345 41.7212C79.1769 41.495 78.1249 41.0848 77.3782 40.4909C76.6655 39.897 76.1734 39.0768 75.9019 38.0303C75.6305 36.9838 75.4947 35.6545 75.4947 34.0424V25.9394H79.5672V35.9939C79.5672 36.8989 79.8727 37.5071 80.4836 37.8182C81.0944 38.1011 82.1126 38.2424 83.538 38.2424H90.3085C90.5462 37.2526 90.6989 36.2061 90.7667 35.103C90.8685 33.9717 90.9194 32.6708 90.9194 31.2C90.9194 29.9556 90.8007 28.6121 90.5631 27.1697C90.3254 25.7273 90.0031 24.2565 89.5959 22.7576L93.6175 22.2061C93.8551 22.9414 94.0757 23.8465 94.2793 24.9212C94.4829 25.9677 94.6525 27.0424 94.7883 28.1455C94.9242 29.2202 94.992 30.1959 94.992 31.0727C94.992 33.8727 94.7374 36.0788 94.2284 37.6909C93.7193 39.2747 92.803 40.4061 91.4794 41.0849C90.1898 41.7353 88.3063 42.0606 85.8288 42.0606ZM69.2332 42.0606H64.1425V38.2424H71.524C72.9493 38.2424 73.9675 38.1011 74.5784 37.8182C75.1892 37.5071 75.4947 36.8989 75.4947 35.9939V25.9394H79.5672V34.0424C79.5672 35.6545 79.4314 36.9838 79.16 38.0303C78.9223 39.0768 78.4304 39.897 77.6837 40.4909C76.971 41.0848 75.936 41.495 74.5784 41.7212C73.2208 41.9474 71.439 42.0606 69.2332 42.0606ZM64.1425 42.0606H51.9249V38.2424H60.0699V25.9394H64.1425V42.0606ZM74.3747 17.0303C74.0353 17.0303 73.6451 16.903 73.2039 16.6485C72.7626 16.3939 72.3725 16.0829 72.033 15.7151C71.7276 15.3192 71.5749 14.9799 71.5749 14.697C71.5749 14.3859 71.7276 14.0606 72.033 13.7212C72.3725 13.3535 72.7626 13.0424 73.2039 12.7879C73.6451 12.505 74.0353 12.3636 74.3747 12.3636C74.748 12.3636 75.1383 12.505 75.5456 12.7879C75.9869 13.0424 76.3601 13.3535 76.6656 13.7212C77.005 14.0606 77.1746 14.3859 77.1746 14.697C77.1746 14.9799 77.005 15.305 76.6656 15.6727C76.3601 16.0405 75.9869 16.3656 75.5456 16.6485C75.1043 16.903 74.7142 17.0303 74.3747 17.0303ZM81.7053 17.0303C81.3659 17.0303 80.9757 16.903 80.5345 16.6485C80.0932 16.3939 79.703 16.0829 79.3636 15.7151C79.0582 15.3192 78.9054 14.9799 78.9054 14.697C78.9054 14.3859 79.0582 14.0606 79.3636 13.7212C79.703 13.3535 80.0932 13.0424 80.5345 12.7879C80.9757 12.505 81.3659 12.3636 81.7053 12.3636C82.0786 12.3636 82.4689 12.505 82.8762 12.7879C83.3174 13.0424 83.6907 13.3535 83.9961 13.7212C84.3356 14.0606 84.5052 14.3859 84.5052 14.697C84.5052 14.9799 84.3356 15.305 83.9961 15.6727C83.6907 16.0405 83.3174 16.3656 82.8762 16.6485C82.4349 16.903 82.0448 17.0303 81.7053 17.0303ZM78.04 10.6667C77.7006 10.6667 77.3104 10.5394 76.8692 10.2849C76.4279 10.0303 76.0378 9.71925 75.6983 9.35151C75.3929 8.95561 75.2402 8.61622 75.2402 8.33333C75.2402 8.02228 75.3929 7.69697 75.6983 7.35757C76.0378 6.98984 76.4279 6.67879 76.8692 6.42424C77.3104 6.14136 77.7006 6 78.04 6C78.4133 6 78.8036 6.14136 79.2109 6.42424C79.6521 6.67879 80.0254 6.98984 80.3308 7.35757C80.6703 7.69697 80.8399 8.02228 80.8399 8.33333C80.8399 8.61622 80.6703 8.94136 80.3308 9.30909C80.0254 9.67683 79.6521 10.002 79.2109 10.2849C78.7696 10.5394 78.3795 10.6667 78.04 10.6667ZM136.482 38.2424H142.591V42.0606H136.482V38.2424ZM110.774 56.2303C110.468 55.495 110.197 54.6323 109.959 53.6424C109.756 52.6526 109.586 51.6061 109.45 50.503C109.314 49.4283 109.247 48.3818 109.247 47.3636C109.247 45.1292 109.433 43.3474 109.807 42.0182C110.214 40.6889 110.859 39.7273 111.741 39.1333C112.657 38.5394 113.862 38.2424 115.355 38.2424H132.409V25.9818C131.018 25.6708 129.134 25.5152 126.759 25.5152C125.299 25.5152 123.755 25.6141 122.126 25.8121C120.497 25.9818 119.004 26.2223 117.646 26.5333L116.068 23.3939C117.392 22.8848 119.038 22.4747 121.006 22.1636C123.008 21.8526 125.045 21.697 127.115 21.697C129.423 21.697 131.255 21.8808 132.613 22.2485C134.004 22.5879 134.989 23.1677 135.565 23.9879C136.176 24.7799 136.482 25.8545 136.482 27.2121V42.0606H114.134C113.862 42.8808 113.659 43.7576 113.523 44.6909C113.387 45.6526 113.319 46.7838 113.319 48.0849C113.319 49.0465 113.421 50.1212 113.625 51.3091C113.862 52.497 114.236 53.9253 114.745 55.5939L110.774 56.2303ZM116.17 40.6606C115.22 39.7556 114.592 38.5677 114.286 37.097C113.981 35.598 113.828 34.0283 113.828 32.3879C113.828 30.7758 114.032 29.2202 114.439 27.7212C114.88 26.2223 115.423 24.7799 116.068 23.3939L119.886 24.3697C119.309 25.8121 118.834 27.1838 118.461 28.4848C118.088 29.7576 117.901 31.0586 117.901 32.3879C117.901 33.4061 117.952 34.3959 118.054 35.3576C118.189 36.3193 118.41 37.2242 118.715 38.0727C119.055 38.9212 119.513 39.6848 120.09 40.3636L116.17 40.6606ZM138.532 42.0606V38.2424H166.123V28.7818H148.764C147.203 28.7818 146.015 28.4849 145.201 27.8909C144.386 27.2686 143.979 26.3636 143.979 25.1758C143.979 24.2424 144.183 23.1959 144.59 22.0364C144.997 20.8768 145.54 19.6889 146.219 18.4727C146.931 17.2283 147.729 16.0545 148.611 14.9515C149.528 13.8201 150.495 12.8303 151.513 11.9818L154.975 13.5091C154.025 14.3576 153.142 15.2626 152.328 16.2242C151.513 17.1576 150.784 18.1192 150.139 19.1091C149.528 20.0989 149.002 21.0889 148.561 22.0788C148.153 23.0686 147.848 24.0303 147.644 24.9636H164.596C166.056 24.9636 167.176 25.105 167.956 25.3879C168.77 25.6708 169.348 26.1515 169.686 26.8303C170.026 27.4808 170.195 28.4141 170.195 29.6303V42.0606H138.532ZM143.775 8.84242C142.825 9.60606 141.943 10.497 141.128 11.5152C140.348 12.505 139.652 13.5656 139.041 14.697C138.396 15.8283 137.87 16.9595 137.463 18.0909C137.056 19.1939 136.767 20.2405 136.597 21.2303L140.314 22.2909C140.551 20.8768 140.975 19.4626 141.586 18.0485C142.231 16.6344 143.029 15.2768 143.979 13.9758C144.963 12.6465 146.049 11.4444 147.237 10.3697L143.775 8.84242Z" fill="white"/>
<path d="M185.81 42.0606V15.5454H190.748L203.067 32.0909C203.576 32.798 203.916 33.3071 204.085 33.6182C204.254 33.901 204.356 34.2686 204.391 34.7212H204.696V15.5454H209.787V42.0606H204.849L192.529 25.5151C192.02 24.808 191.68 24.3132 191.511 24.0303C191.375 23.7192 191.273 23.3374 191.206 22.8848H190.9V42.0606H185.81ZM230.868 42.6969C228.392 42.6969 226.356 42.5697 224.759 42.3151C223.2 42.0606 221.978 41.6222 221.094 41C220.212 40.3777 219.585 39.501 219.21 38.3697C218.872 37.2383 218.701 35.7959 218.701 34.0424V15.5454H223.792V39.0909H231.123C232.99 39.0909 234.399 39.0344 235.348 38.9212C236.333 38.7798 237.012 38.5534 237.384 38.2424C237.759 37.903 237.944 37.4363 237.944 36.8424V15.5454H243.035V34.0424C243.035 35.7959 242.85 37.2383 242.475 38.3697C242.137 39.501 241.526 40.3777 240.642 41C239.761 41.6222 238.522 42.0606 236.926 42.3151C235.366 42.5697 233.346 42.6969 230.868 42.6969ZM270.714 41.5939C269.457 41.9898 268.15 42.2727 266.794 42.4424C265.436 42.6121 263.858 42.6969 262.06 42.6969C259.683 42.6969 257.733 42.4848 256.205 42.0606C254.711 41.608 253.54 40.8727 252.693 39.8545C251.844 38.808 251.249 37.3939 250.911 35.6121C250.571 33.8019 250.402 31.5394 250.402 28.8242C250.402 26.0525 250.571 23.7757 250.911 21.9939C251.284 20.1837 251.911 18.7697 252.795 17.7515C253.676 16.705 254.898 15.9697 256.46 15.5454C258.054 15.1212 260.091 14.9091 262.569 14.9091C263.281 14.9091 264.096 14.9515 265.012 15.0363C265.961 15.0928 266.878 15.1919 267.761 15.3333C268.678 15.4465 269.441 15.6019 270.052 15.8L269.39 19.2788C268.541 19.1091 267.609 18.9677 266.59 18.8545C265.572 18.7413 264.605 18.6565 263.689 18.6C262.772 18.5435 262.025 18.5151 261.449 18.5151C259.48 18.5151 258.054 18.7132 257.173 19.1091C256.289 19.4768 255.849 20.3534 255.849 21.7394V38.5394C256.731 38.7374 257.682 38.8928 258.7 39.006C259.751 39.1192 260.82 39.1757 261.907 39.1757C263.332 39.1757 264.739 39.0768 266.132 38.8788C267.558 38.6807 268.914 38.4262 270.205 38.1151L270.714 41.5939ZM281.671 30.4788V38.5394H295.67V42.0606H276.58V15.5454H295.518L294.907 19.0666H281.671V27.1272H293.736V30.4788H281.671ZM301.303 38.2C302.661 38.4828 304.239 38.7231 306.037 38.9212C307.87 39.0909 309.619 39.1757 311.28 39.1757C312.13 39.1757 312.96 39.1616 313.775 39.1333C314.624 39.105 315.709 39.0344 317.033 38.9212V31.0303L312.197 30.7333C309.924 30.5919 308.057 30.3798 306.597 30.0969C305.139 29.7859 303.984 29.3616 303.135 28.8242C302.321 28.2586 301.745 27.5231 301.405 26.6182C301.099 25.7132 300.946 24.5677 300.946 23.1818C300.946 21.1454 301.252 19.5333 301.863 18.3454C302.508 17.1292 303.543 16.2525 304.968 15.7151C306.393 15.1777 308.277 14.9091 310.619 14.9091C312.384 14.9091 314.099 14.9798 315.76 15.1212C317.424 15.2344 319.138 15.4322 320.902 15.7151L320.24 19.0666C318.747 18.8404 317.271 18.6848 315.811 18.6C314.353 18.4868 312.724 18.4303 310.924 18.4303C309.941 18.4303 309.142 18.4444 308.531 18.4727C307.921 18.501 307.243 18.5575 306.495 18.6424V26.6182L312.146 26.9151C314.828 27.0565 316.915 27.3959 318.407 27.9333C319.935 28.4424 321.004 29.2484 321.614 30.3515C322.26 31.4545 322.582 32.9534 322.582 34.8485C322.582 36.8 322.209 38.3556 321.462 39.5151C320.716 40.6465 319.476 41.4666 317.746 41.9757C316.049 42.4565 313.742 42.6969 310.822 42.6969C309.024 42.6969 307.293 42.6121 305.63 42.4424C303.968 42.301 302.27 42.0465 300.539 41.6788L301.303 38.2Z" fill="white"/>
<path d="M105.786 8.59589L112.827 9.08506C112.796 8.74618 112.832 8.32035 112.937 7.80727C113.052 7.26194 113.252 6.58013 113.536 5.76272C113.935 4.61794 114.394 3.62144 114.912 2.77264C115.443 1.89102 116.106 1.21814 116.901 0.753436C117.708 0.256193 118.708 0.00598526 119.902 0.00310603C121.107 -0.0325964 122.578 0.239495 124.314 0.819084C124.548 0.897111 124.826 1.00825 125.149 1.1525C125.516 1.27486 125.8 1.36988 126 1.43668L122.379 12L105 10.8523L105.786 8.59589ZM119.719 9.52415L121.99 2.99981L118.159 2.76141L115.888 9.28546L119.719 9.52415Z" fill="white"/>
</svg>
